<svg width="121" height="46" viewBox="0 0 121 46" fill="none" xmlns="http://www.w3.org/2000/svg">
<g clip-path="url(#clip0_5720_119446)">
<path d="M66.1405 14.5638C65.2211 14.8851 64.8445 15.4168 64.8556 16.4248C64.922 21.5645 64.8888 26.7042 64.8888 31.8328C64.8888 32.2315 64.8999 32.6192 64.8777 33.018C64.8112 34.3583 64.0802 35.178 62.9725 35.1891C61.7872 35.2002 60.9232 34.3362 60.9122 32.9848C60.89 26.7928 60.8789 20.6008 60.9454 14.4088C60.9565 13.7995 61.3774 12.9688 61.8869 12.6475C66.1516 9.92262 70.7485 9.32446 75.5669 11.13C76.4752 11.4734 77.2285 12.2045 78.17 12.8358C80.3854 11.0414 82.9331 10.122 85.8906 10.1331C91.7282 10.1552 94.9294 12.8026 95.1842 18.3632C95.4168 23.2703 95.2728 28.1995 95.2506 33.1177C95.2396 34.4137 94.3756 35.2112 93.2346 35.1891C92.1934 35.1669 91.3294 34.3583 91.3072 33.162C91.2519 29.562 91.274 25.962 91.2629 22.362C91.2629 21.3097 91.2962 20.2574 91.2297 19.2051C90.9528 14.8186 88.0728 12.8358 83.5977 13.9878C82.7669 14.1983 81.9916 14.6414 81.2494 15.0734C80.3854 15.5829 80.0088 16.314 80.0199 17.3774C80.0863 22.6057 80.0642 27.8229 80.042 33.0512C80.042 34.3583 79.2334 35.1891 78.1257 35.1891C76.9737 35.1891 76.1872 34.3694 76.1208 33.1066C76.0986 32.7522 76.1097 32.4088 76.1097 32.0543C76.1097 28.0555 76.1097 24.0678 76.1097 20.0691C76.1097 19.5817 76.1208 19.1054 76.0765 18.618C75.7442 15.3503 73.7614 13.6223 70.2943 13.7442C70.3054 13.7442 68.4556 13.7552 66.1405 14.5638Z" fill="#8334C2"/>
<path d="M34.3386 15.7601C34.6709 12.5256 36.9749 10.5207 40.3645 10.2216C42.2254 10.0555 44.1417 10.266 46.0026 10.4986C47.4205 10.6758 48.1073 11.6173 47.8968 12.6364C47.6863 13.6555 46.6894 14.1872 45.3048 14.0543C44.0642 13.9435 42.8236 13.7441 41.594 13.7995C39.4119 13.8992 38.282 14.9626 38.2045 17.034C38.1048 20.058 38.138 23.082 38.1269 26.117C38.1159 28.266 38.138 30.4924 38.1159 32.6413C38.1048 34.2696 37.4069 35.1669 36.1774 35.2001C34.8593 35.2444 34.0728 34.314 34.0728 32.6635C34.0617 30.1158 34.0728 27.5016 34.0728 24.954C34.1503 24.954 34.0285 18.7952 34.3386 15.7601Z" fill="#8334C2"/>
<path d="M55.5288 22.7938C55.5288 26.1279 55.5399 29.4621 55.5288 32.7962C55.5178 34.3248 54.8088 35.1888 53.6125 35.1999C52.3387 35.211 51.5855 34.3027 51.5855 32.7408C51.5744 26.1611 51.5744 25.563 51.5855 18.9944C51.5855 17.3439 52.2501 16.491 53.5239 16.4799C54.8642 16.4578 55.5288 17.3107 55.5399 19.0498C55.5288 22.2842 55.5288 19.5482 55.5288 22.7938Z" fill="#8334C2"/>
<path d="M53.4796 14.4087C52.3608 14.3976 51.3417 13.3896 51.3307 12.293C51.3196 11.0745 52.2722 10.144 53.5239 10.144C54.7756 10.144 55.7836 11.1188 55.7393 12.2708C55.7171 13.445 54.6759 14.4197 53.4796 14.4087Z" fill="#8334C2"/>
<path d="M29.0772 17.5657C28.4458 13.6112 25.6766 11.13 21.4563 10.3879C19.396 10.0334 17.4132 10.0888 15.4969 10.4543C14.6329 10.5983 14.0126 11.2851 13.9904 12.1712C13.9683 13.1349 14.8655 14.0211 15.8403 13.9989C15.9843 13.9989 16.1172 13.9768 16.2501 13.9436C17.5683 13.6445 18.9197 13.5559 20.3375 13.8106C23.5055 14.3534 25.1006 16.0482 25.4329 19.77C25.6434 22.1516 25.5437 24.5996 25.2557 26.9811C24.9123 29.9276 22.9295 31.5448 19.8169 31.8106C17.4243 32.01 15.1424 31.5448 12.9603 30.6032C12.2846 30.3152 12.0077 29.9497 12.0298 29.2186C12.0852 27.0697 12.052 24.9208 12.052 22.7719C12.052 21.0328 12.0298 19.2826 12.0631 17.5436V14.5085C12.0631 13.4783 11.1658 12.6143 10.0692 12.5922C9.7369 12.5811 9.42674 12.6476 9.14982 12.7583C6.86797 13.7552 5.22859 14.6082 1.46243 16.5909C0.0445882 17.3663 -0.343104 18.4962 0.310434 19.5817C0.919665 20.6119 2.02736 20.7891 3.36767 20.0691C4.90736 19.2383 6.48028 18.4408 8.07536 17.6765C8.10859 25.8291 8.08643 36.2192 8.09751 44.0949V44.106C8.09751 44.1171 8.09751 44.1171 8.09751 44.1171C8.09751 44.1392 8.09751 44.1503 8.09751 44.1725H8.10859C8.1529 45.1805 9.0169 45.9891 10.0803 45.9891C11.1437 45.9891 12.0187 45.1805 12.052 44.1725H12.0631C12.0741 41.9017 12.0631 37.9583 12.0631 34.2586C14.2784 34.6685 16.2834 35.2002 18.3215 35.3774C23.9707 35.8648 28.468 32.8076 29.2434 27.5017C29.7086 24.2451 29.5978 20.8223 29.0772 17.5657Z" fill="#8334C2"/>
<path d="M120.096 17.5879C119.985 14.0322 117.859 11.5288 114.391 10.6426C110.459 9.63464 106.604 10.122 102.871 11.5731C101.642 12.0494 101.188 13.0463 101.564 13.9989C101.919 14.8962 102.971 15.2285 104.289 14.8408C104.289 14.8408 107.756 13.6999 111.179 13.722C114.092 13.7442 115.743 15.1509 116.142 17.7208C116.208 18.1749 116.219 18.6402 116.208 19.1276H116.219L116.252 24.1454V24.2008C116.252 24.2229 116.252 24.2562 116.252 24.2783V24.4002C116.252 26.2057 116.308 27.8562 116.208 29.4956C116.186 29.9497 115.798 30.6033 115.388 30.8026C112.508 32.2094 109.462 32.4309 106.394 31.4894C104.433 30.8802 103.481 29.418 103.481 27.4574C103.481 25.674 104.544 24.3005 106.505 23.6469C108.421 23.0156 110.293 23.0488 112.165 23.3368C112.254 23.3479 112.353 23.3589 112.453 23.3589C113.339 23.3589 114.048 22.6389 114.048 21.7639C114.048 20.9885 113.494 20.346 112.752 20.202C110.282 19.8365 107.812 19.77 105.319 20.4679C101.642 21.498 99.5263 24.0346 99.5152 27.4353C99.5041 31.146 101.542 33.9485 105.286 34.8679C110.105 36.0642 114.735 35.2888 119.022 32.9294C119.553 32.6414 120.085 31.8439 120.096 31.2789C120.185 26.7263 120.251 22.1516 120.096 17.5879Z" fill="#8334C2"/>
</g>
<defs>
<clipPath id="clip0_5720_119446">
<rect width="120.295" height="36" fill="white" transform="translate(0 10)"/>
</clipPath>
</defs>
</svg>
